<mxfile host="app.diagrams.net" modified="2023-01-23T14:38:15.892Z" agent="5.0 (Windows)" etag="eKVoAUU0_RL31NPxkItA" version="20.8.10" type="github">
  <diagram name="Seite-1" id="8dhn65Cj3MbclAA8dtAb">
    <mxGraphModel dx="1149" dy="476" grid="1" gridSize="10" guides="1" tooltips="1" connect="1" arrows="1" fold="1" page="1" pageScale="1" pageWidth="827" pageHeight="1169" math="0" shadow="0">
      <root>
        <mxCell id="0" />
        <mxCell id="1" parent="0" />
        <mxCell id="jfo7WDEXiLr41LFdycN5-2" value="Board" style="swimlane;fontStyle=1;align=center;verticalAlign=top;childLayout=stackLayout;horizontal=1;startSize=26;horizontalStack=0;resizeParent=1;resizeParentMax=0;resizeLast=0;collapsible=1;marginBottom=0;" parent="1" vertex="1">
          <mxGeometry x="630" y="130" width="160" height="110" as="geometry" />
        </mxCell>
        <mxCell id="jfo7WDEXiLr41LFdycN5-3" value="attributes" style="text;strokeColor=none;fillColor=none;align=left;verticalAlign=top;spacingLeft=4;spacingRight=4;overflow=hidden;rotatable=0;points=[[0,0.5],[1,0.5]];portConstraint=eastwest;" parent="jfo7WDEXiLr41LFdycN5-2" vertex="1">
          <mxGeometry y="26" width="160" height="26" as="geometry" />
        </mxCell>
        <mxCell id="jfo7WDEXiLr41LFdycN5-4" value="" style="line;strokeWidth=1;fillColor=none;align=left;verticalAlign=middle;spacingTop=-1;spacingLeft=3;spacingRight=3;rotatable=0;labelPosition=right;points=[];portConstraint=eastwest;strokeColor=inherit;" parent="jfo7WDEXiLr41LFdycN5-2" vertex="1">
          <mxGeometry y="52" width="160" height="8" as="geometry" />
        </mxCell>
        <mxCell id="jfo7WDEXiLr41LFdycN5-5" value="PositionsFigures,&#xa;SettingFigures&#xa;" style="text;strokeColor=none;fillColor=none;align=left;verticalAlign=top;spacingLeft=4;spacingRight=4;overflow=hidden;rotatable=0;points=[[0,0.5],[1,0.5]];portConstraint=eastwest;" parent="jfo7WDEXiLr41LFdycN5-2" vertex="1">
          <mxGeometry y="60" width="160" height="50" as="geometry" />
        </mxCell>
        <mxCell id="jfo7WDEXiLr41LFdycN5-6" value="Figure" style="swimlane;fontStyle=1;align=center;verticalAlign=top;childLayout=stackLayout;horizontal=1;startSize=26;horizontalStack=0;resizeParent=1;resizeParentMax=0;resizeLast=0;collapsible=1;marginBottom=0;" parent="1" vertex="1">
          <mxGeometry x="260" y="165" width="234" height="146" as="geometry" />
        </mxCell>
        <mxCell id="jfo7WDEXiLr41LFdycN5-7" value="Image -&gt; enum,&#xa;Points -&gt; Int: 1&#xa;Location&#xa;moved: boolean" style="text;strokeColor=none;fillColor=none;align=left;verticalAlign=top;spacingLeft=4;spacingRight=4;overflow=hidden;rotatable=0;points=[[0,0.5],[1,0.5]];portConstraint=eastwest;" parent="jfo7WDEXiLr41LFdycN5-6" vertex="1">
          <mxGeometry y="26" width="234" height="64" as="geometry" />
        </mxCell>
        <mxCell id="jfo7WDEXiLr41LFdycN5-8" value="" style="line;strokeWidth=1;fillColor=none;align=left;verticalAlign=middle;spacingTop=-1;spacingLeft=3;spacingRight=3;rotatable=0;labelPosition=right;points=[];portConstraint=eastwest;strokeColor=inherit;" parent="jfo7WDEXiLr41LFdycN5-6" vertex="1">
          <mxGeometry y="90" width="234" height="8" as="geometry" />
        </mxCell>
        <mxCell id="jfo7WDEXiLr41LFdycN5-9" value="out: possible_loc Moving(in current_loc)" style="text;strokeColor=none;fillColor=none;align=left;verticalAlign=top;spacingLeft=4;spacingRight=4;overflow=hidden;rotatable=0;points=[[0,0.5],[1,0.5]];portConstraint=eastwest;" parent="jfo7WDEXiLr41LFdycN5-6" vertex="1">
          <mxGeometry y="98" width="234" height="48" as="geometry" />
        </mxCell>
        <mxCell id="jfo7WDEXiLr41LFdycN5-39" value="&lt;div&gt;«interface»&lt;/div&gt;Moves" style="html=1;" parent="1" vertex="1">
          <mxGeometry x="540" y="550" width="110" height="50" as="geometry" />
        </mxCell>
        <mxCell id="jfo7WDEXiLr41LFdycN5-40" value="&lt;div&gt;«interface»&lt;/div&gt;&lt;div&gt;&lt;b&gt;User / Player&lt;/b&gt;&lt;/div&gt;" style="html=1;" parent="1" vertex="1">
          <mxGeometry x="330" y="538" width="110" height="50" as="geometry" />
        </mxCell>
        <mxCell id="jfo7WDEXiLr41LFdycN5-41" value="Logging" style="swimlane;fontStyle=1;align=center;verticalAlign=top;childLayout=stackLayout;horizontal=1;startSize=26;horizontalStack=0;resizeParent=1;resizeParentMax=0;resizeLast=0;collapsible=1;marginBottom=0;" parent="1" vertex="1">
          <mxGeometry x="80" y="520" width="160" height="86" as="geometry" />
        </mxCell>
        <mxCell id="jfo7WDEXiLr41LFdycN5-42" value="Locations" style="text;strokeColor=none;fillColor=none;align=left;verticalAlign=top;spacingLeft=4;spacingRight=4;overflow=hidden;rotatable=0;points=[[0,0.5],[1,0.5]];portConstraint=eastwest;" parent="jfo7WDEXiLr41LFdycN5-41" vertex="1">
          <mxGeometry y="26" width="160" height="26" as="geometry" />
        </mxCell>
        <mxCell id="jfo7WDEXiLr41LFdycN5-43" value="" style="line;strokeWidth=1;fillColor=none;align=left;verticalAlign=middle;spacingTop=-1;spacingLeft=3;spacingRight=3;rotatable=0;labelPosition=right;points=[];portConstraint=eastwest;strokeColor=inherit;" parent="jfo7WDEXiLr41LFdycN5-41" vertex="1">
          <mxGeometry y="52" width="160" height="8" as="geometry" />
        </mxCell>
        <mxCell id="jfo7WDEXiLr41LFdycN5-44" value="Write acc. Notation" style="text;strokeColor=none;fillColor=none;align=left;verticalAlign=top;spacingLeft=4;spacingRight=4;overflow=hidden;rotatable=0;points=[[0,0.5],[1,0.5]];portConstraint=eastwest;" parent="jfo7WDEXiLr41LFdycN5-41" vertex="1">
          <mxGeometry y="60" width="160" height="26" as="geometry" />
        </mxCell>
        <mxCell id="UWiHKQXZse0oqmmE9vVX-5" value="Images (enum)" style="swimlane;fontStyle=1;align=center;verticalAlign=top;childLayout=stackLayout;horizontal=1;startSize=26;horizontalStack=0;resizeParent=1;resizeParentMax=0;resizeLast=0;collapsible=1;marginBottom=0;" vertex="1" parent="1">
          <mxGeometry x="10" y="300" width="160" height="128" as="geometry" />
        </mxCell>
        <mxCell id="UWiHKQXZse0oqmmE9vVX-6" value="KING&#xa;QUEEN&#xa;ROOK&#xa;BISHOP&#xa;KNIGHT&#xa;PAWN&#xa;" style="text;strokeColor=none;fillColor=none;align=left;verticalAlign=top;spacingLeft=4;spacingRight=4;overflow=hidden;rotatable=0;points=[[0,0.5],[1,0.5]];portConstraint=eastwest;" vertex="1" parent="UWiHKQXZse0oqmmE9vVX-5">
          <mxGeometry y="26" width="160" height="94" as="geometry" />
        </mxCell>
        <mxCell id="UWiHKQXZse0oqmmE9vVX-7" value="" style="line;strokeWidth=1;fillColor=none;align=left;verticalAlign=middle;spacingTop=-1;spacingLeft=3;spacingRight=3;rotatable=0;labelPosition=right;points=[];portConstraint=eastwest;strokeColor=inherit;" vertex="1" parent="UWiHKQXZse0oqmmE9vVX-5">
          <mxGeometry y="120" width="160" height="8" as="geometry" />
        </mxCell>
        <mxCell id="UWiHKQXZse0oqmmE9vVX-9" value="ChessFigureTypes (enum)" style="swimlane;fontStyle=1;align=center;verticalAlign=top;childLayout=stackLayout;horizontal=1;startSize=26;horizontalStack=0;resizeParent=1;resizeParentMax=0;resizeLast=0;collapsible=1;marginBottom=0;" vertex="1" parent="1">
          <mxGeometry x="10" y="11" width="160" height="154" as="geometry" />
        </mxCell>
        <mxCell id="UWiHKQXZse0oqmmE9vVX-10" value="KING&#xa;QUEEN&#xa;ROOK&#xa;BISHOP&#xa;KNIGHT&#xa;PAWN&#xa;" style="text;strokeColor=none;fillColor=none;align=left;verticalAlign=top;spacingLeft=4;spacingRight=4;overflow=hidden;rotatable=0;points=[[0,0.5],[1,0.5]];portConstraint=eastwest;" vertex="1" parent="UWiHKQXZse0oqmmE9vVX-9">
          <mxGeometry y="26" width="160" height="94" as="geometry" />
        </mxCell>
        <mxCell id="UWiHKQXZse0oqmmE9vVX-11" value="" style="line;strokeWidth=1;fillColor=none;align=left;verticalAlign=middle;spacingTop=-1;spacingLeft=3;spacingRight=3;rotatable=0;labelPosition=right;points=[];portConstraint=eastwest;strokeColor=inherit;" vertex="1" parent="UWiHKQXZse0oqmmE9vVX-9">
          <mxGeometry y="120" width="160" height="8" as="geometry" />
        </mxCell>
        <mxCell id="UWiHKQXZse0oqmmE9vVX-12" value="getRelativeValue(): int" style="text;strokeColor=none;fillColor=none;align=left;verticalAlign=top;spacingLeft=4;spacingRight=4;overflow=hidden;rotatable=0;points=[[0,0.5],[1,0.5]];portConstraint=eastwest;" vertex="1" parent="UWiHKQXZse0oqmmE9vVX-9">
          <mxGeometry y="128" width="160" height="26" as="geometry" />
        </mxCell>
        <mxCell id="UWiHKQXZse0oqmmE9vVX-13" value="Colors (enum)" style="swimlane;fontStyle=1;align=center;verticalAlign=top;childLayout=stackLayout;horizontal=1;startSize=26;horizontalStack=0;resizeParent=1;resizeParentMax=0;resizeLast=0;collapsible=1;marginBottom=0;" vertex="1" parent="1">
          <mxGeometry x="10" y="180" width="220" height="104" as="geometry" />
        </mxCell>
        <mxCell id="UWiHKQXZse0oqmmE9vVX-14" value="Black&#xa;White&#xa;" style="text;strokeColor=none;fillColor=none;align=left;verticalAlign=top;spacingLeft=4;spacingRight=4;overflow=hidden;rotatable=0;points=[[0,0.5],[1,0.5]];portConstraint=eastwest;" vertex="1" parent="UWiHKQXZse0oqmmE9vVX-13">
          <mxGeometry y="26" width="220" height="44" as="geometry" />
        </mxCell>
        <mxCell id="UWiHKQXZse0oqmmE9vVX-15" value="" style="line;strokeWidth=1;fillColor=none;align=left;verticalAlign=middle;spacingTop=-1;spacingLeft=3;spacingRight=3;rotatable=0;labelPosition=right;points=[];portConstraint=eastwest;strokeColor=inherit;" vertex="1" parent="UWiHKQXZse0oqmmE9vVX-13">
          <mxGeometry y="70" width="220" height="8" as="geometry" />
        </mxCell>
        <mxCell id="UWiHKQXZse0oqmmE9vVX-16" value="getOpposing(ChessFigureColor): Color " style="text;strokeColor=none;fillColor=none;align=left;verticalAlign=top;spacingLeft=4;spacingRight=4;overflow=hidden;rotatable=0;points=[[0,0.5],[1,0.5]];portConstraint=eastwest;" vertex="1" parent="UWiHKQXZse0oqmmE9vVX-13">
          <mxGeometry y="78" width="220" height="26" as="geometry" />
        </mxCell>
      </root>
    </mxGraphModel>
  </diagram>
</mxfile>
